<?xml version="1.0" encoding="UTF-8"?>
<svg xmlns="http://www.w3.org/2000/svg" xmlns:xlink="http://www.w3.org/1999/xlink" width="32pt" height="32pt" viewBox="0 0 32 32" version="1.1">
<g id="surface1">
<path style=" stroke:none;fill-rule:nonzero;fill:rgb(100%,48.235294%,29.019608%);fill-opacity:1;" d="M 4.730469 4.730469 L 6.273438 8.148438 L 8.046875 8.046875 L 16 4.75 L 17.875 2.171875 L 16 0 C 11.597656 0 7.613281 1.847656 4.730469 4.730469 Z M 4.730469 4.730469 "/>
<path style=" stroke:none;fill-rule:nonzero;fill:rgb(90.196078%,22.352941%,31.372549%);fill-opacity:1;" d="M 4.730469 4.730469 C 1.847656 7.613281 0 11.597656 0 16 L 2.464844 17.875 L 4.75 16 L 8.046875 8.046875 Z M 4.730469 4.730469 "/>
<path style=" stroke:none;fill-rule:nonzero;fill:rgb(49.411765%,84.705882%,96.470588%);fill-opacity:1;" d="M 4.75 16 L 0 16 C 0 20.402344 1.847656 24.386719 4.730469 27.269531 L 8.148438 25.726562 L 8.046875 23.953125 Z M 4.75 16 "/>
<path style=" stroke:none;fill-rule:nonzero;fill:rgb(41.568627%,66.27451%,100%);fill-opacity:1;" d="M 8.046875 23.953125 L 4.730469 27.269531 C 7.613281 30.152344 11.597656 32 16 32 L 17.875 29.59375 L 16 27.25 Z M 8.046875 23.953125 "/>
<path style=" stroke:none;fill-rule:nonzero;fill:rgb(59.215686%,87.058824%,23.921569%);fill-opacity:1;" d="M 23.953125 23.953125 L 16 27.25 L 16 32 C 20.402344 32 24.386719 30.152344 27.269531 27.269531 L 25.929688 24.054688 Z M 23.953125 23.953125 "/>
<path style=" stroke:none;fill-rule:nonzero;fill:rgb(34.901961%,76.470588%,41.568627%);fill-opacity:1;" d="M 27.25 16 L 23.953125 23.953125 L 27.269531 27.269531 C 30.152344 24.386719 32 20.402344 32 16 L 29.652344 14.125 Z M 27.25 16 "/>
<path style=" stroke:none;fill-rule:nonzero;fill:rgb(99.607843%,84.705882%,26.27451%);fill-opacity:1;" d="M 27.269531 4.730469 L 24.523438 5.601562 L 23.953125 8.046875 L 27.25 16 L 32 16 C 32 11.597656 30.152344 7.613281 27.269531 4.730469 Z M 27.269531 4.730469 "/>
<path style=" stroke:none;fill-rule:nonzero;fill:rgb(100%,62.352941%,0%);fill-opacity:1;" d="M 16 0 L 16 4.75 L 23.953125 8.046875 L 27.269531 4.730469 C 24.386719 1.847656 20.402344 0 16 0 Z M 16 0 "/>
<path style=" stroke:none;fill-rule:nonzero;fill:rgb(90.196078%,22.352941%,31.372549%);fill-opacity:1;" d="M 16 11.3125 L 17.875 8.03125 L 16 4.75 C 12.898438 4.75 10.085938 6.011719 8.046875 8.046875 L 9.46875 11.34375 L 12.683594 12.683594 C 13.535156 11.835938 14.707031 11.3125 16 11.3125 Z M 16 11.3125 "/>
<path style=" stroke:none;fill-rule:nonzero;fill:rgb(68.235294%,14.509804%,21.960784%);fill-opacity:1;" d="M 12.683594 12.683594 L 8.046875 8.046875 C 6.011719 10.085938 4.75 12.898438 4.75 16 L 8.324219 17.875 L 11.3125 16 C 11.3125 14.707031 11.835938 13.535156 12.683594 12.683594 Z M 12.683594 12.683594 "/>
<path style=" stroke:none;fill-rule:nonzero;fill:rgb(41.568627%,66.27451%,100%);fill-opacity:1;" d="M 12.683594 19.316406 C 11.835938 18.464844 11.3125 17.292969 11.3125 16 L 4.75 16 C 4.75 19.101562 6.011719 21.914062 8.046875 23.953125 L 11.398438 22.476562 Z M 12.683594 19.316406 "/>
<path style=" stroke:none;fill-rule:nonzero;fill:rgb(28.235294%,58.431373%,100%);fill-opacity:1;" d="M 12.683594 19.316406 L 8.046875 23.953125 C 10.085938 25.988281 12.898438 27.25 16 27.25 L 17.875 23.851562 L 16 20.6875 C 14.707031 20.6875 13.535156 20.164062 12.683594 19.316406 Z M 12.683594 19.316406 "/>
<path style=" stroke:none;fill-rule:nonzero;fill:rgb(34.901961%,76.470588%,41.568627%);fill-opacity:1;" d="M 16 20.6875 L 16 27.25 C 19.101562 27.25 21.914062 25.988281 23.953125 23.953125 L 22.59375 20.71875 L 19.316406 19.316406 C 18.464844 20.164062 17.292969 20.6875 16 20.6875 Z M 16 20.6875 "/>
<path style=" stroke:none;fill-rule:nonzero;fill:rgb(0%,65.098039%,42.352941%);fill-opacity:1;" d="M 19.316406 19.316406 L 23.953125 23.953125 C 25.988281 21.914062 27.25 19.101562 27.25 16 L 23.910156 14.125 L 20.6875 16 C 20.6875 17.292969 20.164062 18.464844 19.316406 19.316406 Z M 19.316406 19.316406 "/>
<path style=" stroke:none;fill-rule:nonzero;fill:rgb(100%,62.352941%,0%);fill-opacity:1;" d="M 20.6875 16 L 27.25 16 C 27.25 12.898438 25.988281 10.085938 23.953125 8.046875 L 20.453125 9.671875 L 19.316406 12.683594 C 20.164062 13.535156 20.6875 14.707031 20.6875 16 Z M 20.6875 16 "/>
<path style=" stroke:none;fill-rule:nonzero;fill:rgb(100%,39.215686%,10.196078%);fill-opacity:1;" d="M 19.316406 12.683594 L 23.953125 8.046875 C 21.914062 6.011719 19.101562 4.75 16 4.75 L 16 11.3125 C 17.292969 11.3125 18.464844 11.835938 19.316406 12.683594 Z M 19.316406 12.683594 "/>
<path style=" stroke:none;fill-rule:nonzero;fill:rgb(92.941176%,96.078431%,100%);fill-opacity:1;" d="M 21.625 16 C 21.625 19.105469 19.105469 21.625 16 21.625 C 12.894531 21.625 10.375 19.105469 10.375 16 C 10.375 12.894531 12.894531 10.375 16 10.375 C 19.105469 10.375 21.625 12.894531 21.625 16 Z M 21.625 16 "/>
<path style=" stroke:none;fill-rule:nonzero;fill:rgb(83.529412%,90.980392%,99.607843%);fill-opacity:1;" d="M 21.625 16 C 21.625 12.898438 19.101562 10.375 16 10.375 L 16 21.625 C 19.101562 21.625 21.625 19.101562 21.625 16 Z M 21.625 16 "/>
</g>
</svg>
